<svg xmlns="http://www.w3.org/2000/svg" version="1.1" xmlnsXlink="http://www.w3.org/1999/xlink" xmlnsSvgjs="http://svgjs.com/svgjs" width="1440" height="560" preserveAspectRatio="none" viewBox="0 0 1440 560"><g mask="url(&quot;#SvgjsMask1007&quot;)" fill="none"><path d="M1482.4 378.86C1332.83 380.75 1211.41 557.37 909.83 552.46 608.25 547.55 531.71 41.73 337.26-0.91" stroke="rgba(206, 199, 207, 0.66)" stroke-width="2"></path><path d="M1622.34 252.83C1439.58 254.98 1195.51 463.32 921.23 460.03 646.94 456.74 713.11 5.54 570.67-59.99" stroke="rgba(206, 199, 207, 0.66)" stroke-width="2"></path><path d="M1563.82 486.25C1398.4 485 1270.65 334.98 922.37 323.85 574.1 312.72 467.09-44.45 280.93-58.6" stroke="rgba(206, 199, 207, 0.66)" stroke-width="2"></path><path d="M1538.29 340.97C1355.12 338.25 1119.42 123.06 840.62 116.97 561.82 110.88 587.87-41.25 491.78-45.15" stroke="rgba(206, 199, 207, 0.66)" stroke-width="2"></path><path d="M1585.36 106.21C1459.55 108.93 1354.36 280.91 1112.88 279.81 871.39 278.71 789.46-72.42 640.39-94.11" stroke="rgba(206, 199, 207, 0.66)" stroke-width="2"></path></g><defs><mask id="SvgjsMask1007"><rect width="1440" height="560" fill="#ffffff"></rect></mask></defs></svg>